<?xml version="1.0" standalone="no"?><!DOCTYPE svg PUBLIC "-//W3C//DTD SVG 1.1//EN" "http://www.w3.org/Graphics/SVG/1.1/DTD/svg11.dtd"><svg t="1570779189177" class="icon" viewBox="0 0 1249 1024" version="1.1" xmlns="http://www.w3.org/2000/svg" p-id="3802" xmlns:xlink="http://www.w3.org/1999/xlink" width="243.9453125" height="200"><defs><style type="text/css"></style></defs><path d="M762.9824 819.2l38.03136 131.66592c11.71456 38.03136-17.55136 73.13408-55.58272 73.13408H490.88512c-38.03136 0-67.2768-38.03136-55.58272-73.13408L473.33376 819.2h289.64864z" fill="#C9CFD3" p-id="3803"></path><path d="M2.29376 672.91136v87.77728A58.69568 58.69568 0 0 0 60.8256 819.2h1111.77728a58.69568 58.69568 0 0 0 58.51136-58.51136v-87.77728h-1228.8z" fill="#E6EBEF" p-id="3804"></path><path d="M1231.09376 672.91136v-614.4A58.69568 58.69568 0 0 0 1172.5824 0H60.8256A58.69568 58.69568 0 0 0 2.29376 58.51136v614.4h1228.8z" fill="#717578" p-id="3805"></path></svg>